<svg width="18" height="15" viewBox="0 0 18 15" fill="none" xmlns="http://www.w3.org/2000/svg">
<path id="&#208;&#155;&#209;&#131;&#208;&#191;&#208;&#176;" fill-rule="evenodd" clip-rule="evenodd" d="M12.5372 11.6086C10.2683 14.3904 6.17375 14.8062 3.39188 12.5372C0.61002 10.2683 0.194245 6.17375 2.46322 3.39188C4.7322 0.61002 8.82672 0.194244 11.6086 2.46322C14.3883 4.73043 14.8056 8.82033 12.5425 11.6021C12.5408 11.6042 12.539 11.6064 12.5372 11.6086ZM13.3122 12.2406C10.6941 15.4505 5.96967 15.9302 2.75983 13.3122C-0.450013 10.6941 -0.929754 5.96967 1.6883 2.75983C4.30635 -0.450013 9.03079 -0.929754 12.2406 1.6883C15.1877 4.09205 15.8334 8.27146 13.893 11.4239L15.1066 12.4138L17.0439 13.9939L16.4119 14.7688L14.4745 13.1887L13.3122 12.2406Z" fill="white"/>
</svg>
